HIERARCHY
ROOT root
{
	OFFSET	0	13.1	24.9
	CHANNELS 6  Xposition Yposition Zposition Xrotation Yrotation Zrotation
	JOINT spine_1
	{
		OFFSET	0	9.99999	0
		CHANNELS 3  Xrotation Yrotation Zrotation
		JOINT spine_2
		{
			OFFSET	0	112	-10
			CHANNELS 3  Xrotation Yrotation Zrotation
			JOINT spine_3
			{
				OFFSET	0	206.5	19.3
				CHANNELS 3  Xrotation Yrotation Zrotation
				JOINT spine_4
				{
					OFFSET	0	110.4	14.6
					CHANNELS 3  Xrotation Yrotation Zrotation
					JOINT neck_1
					{
						OFFSET	0	71.8	-50.3
						CHANNELS 3  Xrotation Yrotation Zrotation
						JOINT neck_2
						{
							OFFSET	0	86.2	-25.8
							CHANNELS 3  Xrotation Yrotation Zrotation
							JOINT head_ee
							{
								OFFSET	0	179.8	-8.7
								CHANNELS 3  Xrotation Yrotation Zrotation
								End Site
								{
									OFFSET	1	0	0
								}
							}
						}
					}
					JOINT left_clavicle
					{
						OFFSET	-43.2	22.4	-70.8
						CHANNELS 3  Xrotation Yrotation Zrotation
						JOINT left_shoulder
						{
							OFFSET	-93.9	-5.79999	48.7
							CHANNELS 3  Xrotation Yrotation Zrotation
							JOINT left_elbow
							{
								OFFSET	-291.4	-30.8	15.2
								CHANNELS 3  Xrotation Yrotation Zrotation
								JOINT left_lowarm_twist
								{
									OFFSET	-110.7	-3.89999	13.6
									CHANNELS 3  Xrotation Yrotation Zrotation
									JOINT left_hand
									{
										OFFSET	-110.7	-3.89999	13.6
										CHANNELS 3  Xrotation Yrotation Zrotation
										JOINT left_ee
										{
											OFFSET	-80.8	-5.10001	12.1
											CHANNELS 3  Xrotation Yrotation Zrotation
											End Site
											{
												OFFSET	1	0	0
											}
										}
									}
								}
							}
						}
					}
					JOINT right_clavicle
					{
						OFFSET	43.2	22.4	-70.8
						CHANNELS 3  Xrotation Yrotation Zrotation
						JOINT right_shoulder
						{
							OFFSET	93.9	-5.79999	48.7
							CHANNELS 3  Xrotation Yrotation Zrotation
							JOINT right_elbow
							{
								OFFSET	291.4	-30.8	15.2
								CHANNELS 3  Xrotation Yrotation Zrotation
								JOINT right_lowarm_twist
								{
									OFFSET	110.7	-3.89999	13.6
									CHANNELS 3  Xrotation Yrotation Zrotation
									JOINT right_hand
									{
										OFFSET	110.7	-3.89999	13.6
										CHANNELS 3  Xrotation Yrotation Zrotation
										JOINT right_ee
										{
											OFFSET	80.8	-5.10001	12.1
											CHANNELS 3  Xrotation Yrotation Zrotation
											End Site
											{
												OFFSET	1	0	0
											}
										}
									}
								}
							}
						}
					}
				}
			}
		}
	}
	JOINT left_hip
	{
		OFFSET	-82.8	-127.5	0.300001
		CHANNELS 3  Xrotation Yrotation Zrotation
		JOINT left_knee
		{
			OFFSET	-28.2	-396.7	2.2
			CHANNELS 3  Xrotation Yrotation Zrotation
			JOINT left_ankle
			{
				OFFSET	-11.7	-411.3	35.4
				CHANNELS 3  Xrotation Yrotation Zrotation
				JOINT left_toes
				{
					OFFSET	0	-60	-88.6
					CHANNELS 3  Xrotation Yrotation Zrotation
					JOINT left_foot_ee
					{
						OFFSET	-22.5	-16.5	-42.2
						CHANNELS 3  Xrotation Yrotation Zrotation
						End Site
						{
							OFFSET	1	0	0
						}
					}
				}
			}
		}
	}
	JOINT right_hip
	{
		OFFSET	82.8	-127.5	0.300001
		CHANNELS 3  Xrotation Yrotation Zrotation
		JOINT right_knee
		{
			OFFSET	28.2	-396.7	2.2
			CHANNELS 3  Xrotation Yrotation Zrotation
			JOINT right_ankle
			{
				OFFSET	11.7	-411.3	35.4
				CHANNELS 3  Xrotation Yrotation Zrotation
				JOINT right_toes
				{
					OFFSET	0	-60	-88.6
					CHANNELS 3  Xrotation Yrotation Zrotation
					JOINT right_foot_ee
					{
						OFFSET	22.5	-16.5	-42.2
						CHANNELS 3  Xrotation Yrotation Zrotation
						End Site
						{
							OFFSET	1	0	0
						}
					}
				}
			}
		}
	}
}
MOTION
Frames: 15
Frame Time: 0.02
2794.92375515 700.839 -1639.75530391 9.23735667745 56.7889734936 -9.2617854501 -2.30351 0.299015 0.575824 -2.30336 0.261768 0.593683 -2.30037 0.105542 0.640188 -2.30088 0.205321 0.615487 0.888057 19.9314 2.47853 1.85537 33.4241 4.3135 -0.0 0.0 -0.0 6.66247 17.3957 12.417 12.0758 -0.340125 60.8831 1.34194 -33.6126 0.405333 -6.43383 -0.270623 0.776239 -0.727773 28.765 7.28688 -0.0 0.0 -0.0 12.8769 20.4562 -25.9258 -15.9734 22.6459 -64.832 0.289259 8.15461 -0.0206192 -8.42053 0.371647 -1.00936 6.06088 18.2179 -34.3926 0.0 0.0 0.0 -4.06107 26.9166 2.78035 -17.2196 0.318376 2.6134 28.2221 -18.001 -4.05289 -10.4545 0.0 0.0 -0.0 0.0 -0.0 19.4939 31.9852 -10.8739 -63.1724 2.55211 -8.86541 37.8308 -14.6982 4.72889 -40.1675 0.0 0.0 0.0 0.0 0.0 
2781.92269928 707.951 -1615.60646094 9.08382243394 58.9728587997 -9.70886836952 -2.15014 -0.0779449 0.66207 -2.1499 -0.119915 0.655769 -2.15111 -0.278015 0.605906 -2.15158 -0.178837 0.642208 0.848341 20.0316 2.34387 1.83296 33.7258 4.17871 -0.0 0.0 -0.0 6.5148 18.1313 12.1365 12.8368 -1.4138 60.8977 1.42624 -35.2398 0.452996 -6.36044 -0.267047 0.767562 -0.587921 27.3023 7.47922 -0.0 0.0 -0.0 12.9453 20.412 -26.0882 -17.9829 24.6641 -63.6442 0.313549 8.82899 -0.0242061 -8.72074 0.387616 -1.04428 6.11217 17.9846 -34.9538 0.0 0.0 0.0 -8.78696 31.9537 6.4542 -7.47648 0.234855 1.12257 23.319 -21.0027 -3.54095 -11.8481 0.0 0.0 -0.0 0.0 -0.0 24.6443 31.869 -14.3994 -58.9576 2.08848 -8.4096 36.2623 -19.3953 4.6561 -40.1593 0.0 0.0 0.0 0.0 0.0 
2770.24483654 702.061 -1584.12595775 10.5352819581 62.4969585215 -11.3129441532 -2.15166 -0.148415 0.622651 -2.15147 -0.187735 0.611946 -2.15338 -0.332948 0.54669 -2.15371 -0.242432 0.59241 -1.70414 21.0859 2.6356 -0.914647 36.1163 5.26453 -0.0 0.0 -0.0 6.21729 16.3472 11.7592 13.9274 -3.39179 60.5479 1.40973 -34.9261 0.443506 -5.91583 -0.245619 0.714902 -0.323066 25.311 8.19779 -0.0 0.0 -0.0 12.8428 20.3804 -25.8521 -19.8708 27.9019 -62.3102 0.263276 7.43071 -0.0170962 -12.998 0.634815 -1.53234 5.90186 16.5903 -34.196 0.0 0.0 0.0 -10.206 28.6372 7.60833 -10.7398 0.291069 1.6201 29.2998 -15.8378 -4.11174 -12.7966 0.0 0.0 -0.0 0.0 -0.0 29.2461 31.8014 -17.0805 -57.3918 1.92503 -8.23187 39.3583 -14.943 4.87379 -40.1827 0.0 0.0 0.0 0.0 0.0 
2757.78323606 697.411 -1563.69658279 9.85589577098 63.7165485743 -10.4834584454 -2.13801 -0.21829 0.658745 -2.13781 -0.259764 0.64352 -2.14067 -0.410422 0.5596 -2.14097 -0.316894 0.617393 -0.0697435 20.5393 2.8697 0.846741 34.4751 5.017 -0.0 0.0 -0.0 5.78969 17.1518 11.0385 15.1149 -4.34015 59.8242 1.54889 -37.4955 0.525739 -5.82734 -0.241404 0.704401 -0.512226 28.5655 8.38239 -0.0 0.0 -0.0 12.6147 20.3751 -25.3237 -17.5778 23.2512 -63.6734 0.225013 6.36037 -0.0125021 -9.24514 0.415948 -1.10508 6.21378 19.0188 -35.0603 0.0 0.0 0.0 -9.162 27.2706 6.30494 -14.6016 0.320873 2.21177 28.7565 -17.7826 -4.10835 -10.8732 0.0 0.0 -0.0 0.0 -0.0 31.209 29.3077 -16.5348 -56.853 1.86992 -8.16969 37.0835 -15.3566 4.66708 -40.2729 0.0 0.0 0.0 0.0 0.0 
2743.87887017 700.117 -1556.09173656 11.4371066478 64.9300965408 -12.1925380746 -2.27985 -0.32949 0.553606 -2.27975 -0.364049 0.531518 -2.2832 -0.484925 0.424137 -2.28321 -0.411855 0.495398 -0.200369 20.6828 2.27243 0.752861 35.2534 4.40947 -0.0 0.0 -0.0 5.49716 17.2782 10.5702 15.0631 -7.96636 60.2762 1.65241 -39.2992 0.590046 -5.71189 -0.235928 0.690692 -0.440228 28.2547 8.65843 -0.0 0.0 -0.0 12.6591 18.8902 -25.5279 -18.5212 23.8693 -62.4759 0.19944 5.64245 -0.00982833 -9.78932 0.445937 -1.16789 6.36864 19.6368 -35.8601 0.0 0.0 0.0 -11.1939 27.682 7.03745 -14.6197 0.320919 2.21455 29.6672 -17.2148 -4.19498 -11.2706 0.0 0.0 -0.0 0.0 -0.0 35.5561 29.057 -17.3008 -49.3554 1.16649 -7.25432 36.9976 -15.4156 4.65968 -39.7599 0.0 0.0 0.0 0.0 0.0 
2743.82289095 700.117 -1556.30615199 11.4250985902 64.9022981404 -12.1792795925 -2.27985 -0.32949 0.553606 -2.27975 -0.364049 0.531518 -2.2832 -0.484925 0.424137 -2.28321 -0.411855 0.495398 -0.200369 20.6828 2.27243 0.752861 35.2534 4.40947 -0.0 0.0 -0.0 5.49716 17.2782 10.5702 15.0631 -7.96636 60.2762 1.65241 -39.2992 0.590046 -5.71189 -0.235928 0.690692 -0.440228 28.2547 8.65843 -0.0 0.0 -0.0 12.6591 18.8902 -25.5279 -18.5212 23.8693 -62.4759 0.19944 5.64245 -0.00982833 -9.78932 0.445937 -1.16789 6.36864 19.6368 -35.8601 0.0 0.0 0.0 -11.1939 27.682 7.03745 -14.6197 0.320919 2.21455 29.6672 -17.2148 -4.19498 -11.2706 0.0 0.0 -0.0 0.0 -0.0 35.5561 29.057 -17.3008 -49.3554 1.16649 -7.25432 36.9976 -15.4156 4.65968 -39.7599 0.0 0.0 0.0 0.0 0.0 
2732.0929157 698.849 -1545.39325203 9.09540097223 65.3034474644 -9.45817929131 -2.07738 -0.4485 0.322394 -2.07744 -0.468106 0.293201 -2.08001 -0.525767 0.169287 -2.07972 -0.492433 0.250199 -0.0254653 20.3562 1.71457 0.94582 35.0627 3.73189 -0.0 0.0 -0.0 5.29563 16.5889 10.2693 15.1176 -10.0508 60.4132 1.70894 -40.2465 0.626212 -5.85806 -0.242866 0.708048 -0.429221 27.5998 8.47126 -0.0 0.0 -0.0 12.4954 19.7407 -25.0931 -18.2012 23.4472 -62.4113 0.213741 6.04417 -0.0112843 -9.48068 0.428855 -1.1323 6.33103 19.577 -35.6033 0.0 0.0 0.0 -13.7192 28.5975 8.67261 -7.90326 0.243817 1.18745 27.5649 -17.9826 -3.97465 -11.4433 0.0 0.0 -0.0 0.0 -0.0 38.7673 30.1244 -18.0166 -46.244 0.911008 -6.84926 36.4851 -17.6748 4.64584 -39.7673 0.0 0.0 0.0 0.0 0.0 
2717.03220923 695.035 -1540.72270188 6.70324627158 65.5886767019 -6.34806769233 -1.92911 -0.319807 0.0982456 -1.92917 -0.325411 0.0776962 -1.92968 -0.334537 -0.00370063 -1.92953 -0.330923 0.0491803 -0.268708 20.8304 0.834691 0.791442 36.6913 2.86474 -0.0 0.0 -0.0 5.57311 16.5197 10.7151 15.6435 -12.6259 59.9097 1.82885 -42.1712 0.705218 -6.00128 -0.249706 0.725035 -0.301352 25.9916 8.57806 -0.0 0.0 -0.0 12.1543 17.6406 -24.4355 -19.6733 23.8415 -61.6361 0.199787 5.65222 -0.00986243 -10.4112 0.480939 -1.23933 6.26821 19.1425 -35.4066 0.0 0.0 0.0 -15.9559 31.2517 10.2384 -1.91787 0.0742027 0.28496 26.6564 -17.8695 -3.86229 -11.6897 0.0 0.0 -0.0 0.0 -0.0 40.5765 31.7025 -18.6981 -40.8267 0.520199 -6.11361 35.4053 -20.4302 4.59097 -39.6007 0.0 0.0 0.0 0.0 0.0 
2694.55979732 685.562 -1540.11477779 5.20144058383 66.9442061638 -5.11720785438 -1.34955 -0.403296 0.111791 -1.34963 -0.409592 0.0859013 -1.35034 -0.418332 -0.011967 -1.3501 -0.414972 0.0542521 -0.170493 21.1208 0.398659 0.974815 37.5394 2.36966 -0.0 0.0 -0.0 5.10899 15.9029 9.98417 15.7424 -14.8312 60.5315 1.83295 -42.2351 0.707973 -7.27811 -0.312565 0.875728 -0.211394 24.8566 8.66278 -0.0 0.0 -0.0 11.9181 14.4942 -24.0272 -19.7757 23.3715 -61.3985 0.190817 5.39997 -0.00899868 -10.5042 0.486244 -1.24999 6.39769 18.8222 -36.665 0.0 0.0 0.0 -18.9826 31.7632 11.9287 2.03288 -0.0890353 -0.299219 28.5774 -18.2621 -4.1029 -11.7728 0.0 0.0 -0.0 0.0 -0.0 41.8602 30.9873 -18.7678 -28.0063 -0.115251 -4.25377 26.6452 -25.9337 3.7307 -39.1508 0.0 0.0 0.0 0.0 0.0 
2674.28364293 687.011 -1544.22268302 1.85793078333 67.0780105173 -1.42224229401 -0.855251 -0.314569 -0.0578235 -0.855303 -0.310252 -0.0777234 -0.854901 -0.284849 -0.14546 -0.854801 -0.304247 -0.0986475 0.324263 20.3949 0.0157945 1.47463 36.4084 1.7579 -0.0 0.0 -0.0 5.40345 15.5987 10.4669 14.3769 -16.3066 59.1618 1.84322 -42.3944 0.714887 -8.05477 -0.352441 0.966701 0.0142052 21.879 8.8631 -0.0 0.0 -0.0 11.812 11.7355 -23.8441 -20.8113 24.3253 -61.3086 0.184761 5.22956 -0.00843771 -12.0237 0.5753 -1.42279 5.87644 16.3094 -34.1733 0.0 0.0 0.0 -19.4133 33.1941 11.9812 3.32831 -0.1513 -0.488208 25.1274 -18.2365 -3.68583 -13.3141 0.0 0.0 -0.0 0.0 -0.0 42.1296 30.9589 -18.992 -21.5252 -0.274396 -3.27242 18.42 -28.3568 2.71434 -36.3338 0.0 0.0 0.0 0.0 0.0 
2656.30818794 681.409 -1541.6597419 -0.52347372097 67.7252543984 1.29734343161 -0.621623 -0.209078 -0.306213 -0.62159 -0.189169 -0.318897 -0.62048 -0.114108 -0.352788 -0.620615 -0.168392 -0.330339 -0.132526 21.5133 0.354956 1.07477 38.2749 2.32789 -0.0 0.0 -0.0 4.90181 15.7482 9.65237 14.3573 -17.1514 60.5438 1.99876 -44.7107 0.822078 -8.70883 -0.386978 1.04289 0.184702 19.6868 9.06773 -0.0 0.0 -0.0 11.4581 8.58744 -23.0522 -22.056 24.9422 -60.6794 0.197296 5.58221 -0.00961867 -12.1364 0.582088 -1.43551 6.14985 17.2755 -35.7279 0.0 0.0 0.0 -20.3986 32.7369 12.187 5.25385 -0.251726 -0.766459 28.81 -18.0578 -4.12338 -13.2017 0.0 0.0 -0.0 0.0 -0.0 41.3826 31.4478 -18.6464 -12.3483 -0.308329 -1.86629 11.806 -27.9738 1.77652 -37.3379 0.0 0.0 0.0 0.0 0.0 
2654.83500708 681.409 -1547.82763065 -0.508817005408 67.0475736616 1.28146632564 -0.621623 -0.209078 -0.306213 -0.62159 -0.189169 -0.318897 -0.62048 -0.114108 -0.352788 -0.620615 -0.168392 -0.330339 -0.132526 21.5133 0.354956 1.07477 38.2749 2.32789 -0.0 0.0 -0.0 4.90181 15.7482 9.65237 14.3573 -17.1514 60.5438 1.99876 -44.7107 0.822078 -8.70883 -0.386978 1.04289 0.184702 19.6868 9.06773 -0.0 0.0 -0.0 11.4581 8.58744 -23.0522 -22.056 24.9422 -60.6794 0.197296 5.58221 -0.00961867 -12.1364 0.582088 -1.43551 6.14985 17.2755 -35.7279 0.0 0.0 0.0 -20.3986 32.7369 12.187 5.25385 -0.251726 -0.766459 28.81 -18.0578 -4.12338 -13.2017 0.0 0.0 -0.0 0.0 -0.0 41.3826 31.4478 -18.6464 -12.3483 -0.308329 -1.86629 11.806 -27.9738 1.77652 -37.3379 0.0 0.0 0.0 0.0 0.0 
2633.71192276 678.32 -1547.44402016 -2.24750278346 68.2148588451 2.90580105294 -0.515699 -0.146815 -0.298944 -0.515659 -0.127495 -0.30768 -0.514927 -0.0570352 -0.32813 -0.515061 -0.108141 -0.315004 -0.137879 21.5384 -0.0420657 1.10691 38.6381 1.89135 -0.0 0.0 -0.0 4.76894 15.8072 9.4377 14.0629 -18.354 61.0383 2.09344 -46.0358 0.889467 -9.20486 -0.413752 1.10042 0.307491 18.7304 9.4598 -0.0 0.0 -0.0 11.3578 6.49513 -22.7959 -22.0482 25.7954 -60.2488 0.180555 5.11117 -0.00805874 -12.9232 0.630178 -1.52396 6.07542 16.5973 -35.5775 0.0 0.0 0.0 -21.1708 33.5175 12.5732 4.59631 -0.216379 -0.671815 28.7443 -17.4691 -4.09706 -13.1396 0.0 0.0 -0.0 0.0 -0.0 41.8675 31.5223 -18.7038 -8.10847 -0.247954 -1.21867 6.18532 -29.0945 0.953271 -36.4781 0.0 0.0 0.0 0.0 0.0 
2611.76823713 669.143 -1550.08089017 -1.92541032124 68.1071891291 2.60631369105 -0.31051 -0.0561103 -0.398389 -0.310422 -0.0306463 -0.401152 -0.310154 0.0565086 -0.398333 -0.310376 -0.00710929 -0.402258 -0.293421 21.7515 -0.0694146 0.958696 39.0862 1.92351 -0.0 0.0 -0.0 4.75977 15.9283 9.42193 13.8555 -19.5544 61.82 2.16065 -46.9394 0.938207 -9.5515 -0.432758 1.14048 0.428647 17.507 9.7536 -0.0 0.0 -0.0 11.3062 4.78519 -22.6329 -22.8019 26.4015 -59.6963 0.169635 4.80354 -0.00711507 -13.7634 0.68287 -1.61769 6.03673 16.0851 -35.5994 0.0 0.0 0.0 -22.5137 33.6721 13.1371 3.00029 -0.135129 -0.440483 30.0949 -17.4083 -4.24954 -13.4326 0.0 0.0 -0.0 0.0 -0.0 40.9439 31.8683 -18.2831 -4.28183 -0.152462 -0.639293 1.5013 -28.8816 0.233736 -36.1219 0.0 0.0 0.0 0.0 0.0 
2610.88261662 669.143 -1554.36032392 -1.88989377629 67.6739934482 2.56797849162 -0.31051 -0.0561103 -0.398389 -0.310422 -0.0306463 -0.401152 -0.310154 0.0565086 -0.398333 -0.310376 -0.00710929 -0.402258 -0.293421 21.7515 -0.0694146 0.958696 39.0862 1.92351 -0.0 0.0 -0.0 4.75977 15.9283 9.42193 13.8555 -19.5544 61.82 2.16065 -46.9394 0.938207 -9.5515 -0.432758 1.14048 0.428647 17.507 9.7536 -0.0 0.0 -0.0 11.3062 4.78519 -22.6329 -22.8019 26.4015 -59.6963 0.169635 4.80354 -0.00711507 -13.7634 0.68287 -1.61769 6.03673 16.0851 -35.5994 0.0 0.0 0.0 -22.5137 33.6721 13.1371 3.00029 -0.135129 -0.440483 30.0949 -17.4083 -4.24954 -13.4326 0.0 0.0 -0.0 0.0 -0.0 40.9439 31.8683 -18.2831 -4.28183 -0.152462 -0.639293 1.5013 -28.8816 0.233736 -36.1219 0.0 0.0 0.0 0.0 0.0 
